<svg width="252" height="30" viewBox="0 0 252 30" fill="none" xmlns="http://www.w3.org/2000/svg">
<g filter="url(#filter0_d_314_1456)">
<path d="M23.792 13.926L28.544 1.155H31.757L24.035 21H23.657L18.257 8.148L12.884 20.973H12.506L4.784 1.155H7.997L12.749 13.926L18.203 1.047H18.365L23.792 13.926ZM39.576 1.128L49.134 21H45.651L43.95 17.112H34.851L33.15 21H29.775L39.279 1.128H39.576ZM38.226 9.579L36.066 14.385H42.762L40.629 9.606L39.468 6.879H39.414L38.226 9.579ZM50.7964 1.155H53.8474V18.3H59.5444V21H50.7964V1.155ZM69.7137 1.128L79.2717 21H75.7887L74.0877 17.112H64.9887L63.2877 21H59.9127L69.4167 1.128H69.7137ZM68.3637 9.579L66.2037 14.385H72.8997L70.7667 9.606L69.6057 6.879H69.5517L68.3637 9.579ZM89.1347 21.189C87.0827 21.189 85.3007 20.73 83.7887 19.812C82.2947 18.894 81.1517 17.67 80.3597 16.14C79.5677 14.592 79.1717 12.891 79.1717 11.037C79.1717 9.075 79.5947 7.32 80.4407 5.772C81.3047 4.224 82.5107 3.018 84.0587 2.154C85.6067 1.272 87.3617 0.830999 89.3237 0.830999C90.2057 0.830999 91.0247 0.929999 91.7807 1.128C92.5547 1.308 93.1937 1.524 93.6977 1.776C94.2017 2.01 94.5347 2.208 94.6967 2.37L93.3737 5.07C92.2757 4.098 90.8447 3.612 89.0807 3.612C87.8387 3.612 86.7137 3.918 85.7057 4.53C84.6977 5.142 83.9057 6.015 83.3297 7.149C82.7537 8.283 82.4657 9.597 82.4657 11.091C82.4657 12.459 82.7177 13.701 83.2217 14.817C83.7437 15.933 84.4997 16.815 85.4897 17.463C86.4797 18.111 87.6587 18.435 89.0267 18.435C90.6107 18.435 92.1407 17.985 93.6167 17.085L94.5077 19.65C94.1117 20.01 93.3827 20.361 92.3207 20.703C91.2767 21.027 90.2147 21.189 89.1347 21.189ZM97.6239 1.155H106.318V3.801H100.621V9.282H105.211V11.982H100.621V18.327H107.209V21H97.6239V1.155ZM125.891 21.189C123.839 21.189 122.057 20.73 120.545 19.812C119.051 18.894 117.908 17.67 117.116 16.14C116.324 14.592 115.928 12.891 115.928 11.037C115.928 9.075 116.351 7.32 117.197 5.772C118.061 4.224 119.267 3.018 120.815 2.154C122.363 1.272 124.118 0.830999 126.08 0.830999C126.962 0.830999 127.781 0.929999 128.537 1.128C129.311 1.308 129.95 1.524 130.454 1.776C130.958 2.01 131.291 2.208 131.453 2.37L130.13 5.07C129.032 4.098 127.601 3.612 125.837 3.612C124.595 3.612 123.47 3.918 122.462 4.53C121.454 5.142 120.662 6.015 120.086 7.149C119.51 8.283 119.222 9.597 119.222 11.091C119.222 12.459 119.474 13.701 119.978 14.817C120.5 15.933 121.256 16.815 122.246 17.463C123.236 18.111 124.415 18.435 125.783 18.435C127.367 18.435 128.897 17.985 130.373 17.085L131.264 19.65C130.868 20.01 130.139 20.361 129.077 20.703C128.033 21.027 126.971 21.189 125.891 21.189ZM142.715 21.27C140.915 21.27 139.25 20.856 137.72 20.028C136.208 19.182 135.002 17.985 134.102 16.437C133.202 14.889 132.752 13.089 132.752 11.037C132.752 8.967 133.202 7.167 134.102 5.637C135.002 4.089 136.208 2.901 137.72 2.073C139.25 1.245 140.915 0.830999 142.715 0.830999C144.515 0.830999 146.171 1.245 147.683 2.073C149.213 2.901 150.428 4.089 151.328 5.637C152.228 7.167 152.678 8.967 152.678 11.037C152.678 13.089 152.228 14.889 151.328 16.437C150.428 17.985 149.213 19.182 147.683 20.028C146.171 20.856 144.515 21.27 142.715 21.27ZM142.715 18.543C143.957 18.543 145.091 18.255 146.117 17.679C147.143 17.085 147.953 16.23 148.547 15.114C149.159 13.98 149.465 12.63 149.465 11.064C149.465 9.48 149.159 8.13 148.547 7.014C147.953 5.88 147.143 5.025 146.117 4.449C145.109 3.873 143.975 3.585 142.715 3.585C141.455 3.585 140.312 3.873 139.286 4.449C138.26 5.025 137.45 5.88 136.856 7.014C136.262 8.13 135.965 9.48 135.965 11.064C135.965 12.63 136.271 13.98 136.883 15.114C137.495 16.23 138.314 17.085 139.34 17.679C140.384 18.255 141.509 18.543 142.715 18.543ZM165.963 21L161.967 13.494C161.139 13.53 160.401 13.548 159.753 13.548H158.997V21H156.054V1.155H160.563C162.849 1.155 164.73 1.632 166.206 2.586C167.682 3.522 168.42 5.052 168.42 7.176C168.42 8.508 168.105 9.66 167.475 10.632C166.863 11.586 165.945 12.324 164.721 12.846L169.446 21H165.963ZM160.914 11.091C162.678 11.091 163.884 10.713 164.532 9.957C165.198 9.183 165.531 8.265 165.531 7.203C165.531 4.845 163.956 3.666 160.806 3.666H158.997V11.091H160.914ZM172.534 1.155H177.313C181.309 1.155 184.099 2.1 185.683 3.99C187.285 5.88 188.086 8.13 188.086 10.74C188.086 12.558 187.744 14.241 187.06 15.789C186.376 17.319 185.242 18.57 183.658 19.542C182.092 20.514 180.031 21 177.475 21H172.534V1.155ZM177.799 18.327C180.283 18.327 182.083 17.625 183.199 16.221C184.333 14.799 184.9 13.017 184.9 10.875C184.9 8.787 184.333 7.086 183.199 5.772C182.065 4.458 180.265 3.801 177.799 3.801H175.558V18.327H177.799ZM191.096 1.155H199.79V3.801H194.093V9.282H198.683V11.982H194.093V18.327H200.681V21H191.096V1.155ZM204.077 1.155H207.101V21H204.077V1.155ZM221.572 21L217.576 13.494C216.748 13.53 216.01 13.548 215.362 13.548H214.606V21H211.663V1.155H216.172C218.458 1.155 220.339 1.632 221.815 2.586C223.291 3.522 224.029 5.052 224.029 7.176C224.029 8.508 223.714 9.66 223.084 10.632C222.472 11.586 221.554 12.324 220.33 12.846L225.055 21H221.572ZM216.523 11.091C218.287 11.091 219.493 10.713 220.141 9.957C220.807 9.183 221.14 8.265 221.14 7.203C221.14 4.845 219.565 3.666 216.415 3.666H214.606V11.091H216.523ZM237.268 21.27C235.468 21.27 233.803 20.856 232.273 20.028C230.761 19.182 229.555 17.985 228.655 16.437C227.755 14.889 227.305 13.089 227.305 11.037C227.305 8.967 227.755 7.167 228.655 5.637C229.555 4.089 230.761 2.901 232.273 2.073C233.803 1.245 235.468 0.830999 237.268 0.830999C239.068 0.830999 240.724 1.245 242.236 2.073C243.766 2.901 244.981 4.089 245.881 5.637C246.781 7.167 247.231 8.967 247.231 11.037C247.231 13.089 246.781 14.889 245.881 16.437C244.981 17.985 243.766 19.182 242.236 20.028C240.724 20.856 239.068 21.27 237.268 21.27ZM237.268 18.543C238.51 18.543 239.644 18.255 240.67 17.679C241.696 17.085 242.506 16.23 243.1 15.114C243.712 13.98 244.018 12.63 244.018 11.064C244.018 9.48 243.712 8.13 243.1 7.014C242.506 5.88 241.696 5.025 240.67 4.449C239.662 3.873 238.528 3.585 237.268 3.585C236.008 3.585 234.865 3.873 233.839 4.449C232.813 5.025 232.003 5.88 231.409 7.014C230.815 8.13 230.518 9.48 230.518 11.064C230.518 12.63 230.824 13.98 231.436 15.114C232.048 16.23 232.867 17.085 233.893 17.679C234.937 18.255 236.062 18.543 237.268 18.543Z" fill="#E8E8E8"/>
</g>
<defs>
<filter id="filter0_d_314_1456" x="0.783997" y="0.830994" width="250.447" height="28.439" filterUnits="userSpaceOnUse" color-interpolation-filters="sRGB">
<feFlood flood-opacity="0" result="BackgroundImageFix"/>
<feColorMatrix in="SourceAlpha" type="matrix" values="0 0 0 0 0 0 0 0 0 0 0 0 0 0 0 0 0 0 127 0" result="hardAlpha"/>
<feOffset dy="4"/>
<feGaussianBlur stdDeviation="2"/>
<feComposite in2="hardAlpha" operator="out"/>
<feColorMatrix type="matrix" values="0 0 0 0 0 0 0 0 0 0 0 0 0 0 0 0 0 0 0.25 0"/>
<feBlend mode="normal" in2="BackgroundImageFix" result="effect1_dropShadow_314_1456"/>
<feBlend mode="normal" in="SourceGraphic" in2="effect1_dropShadow_314_1456" result="shape"/>
</filter>
</defs>
</svg>
